<svg xmlns="http://www.w3.org/2000/svg" width="57.158" height="131.582" viewBox="0 0 57.158 131.582">
  <g id="logo" transform="translate(-50.232 -39.148)">
    <path id="Path_17610" data-name="Path 17610" d="M49.448,129.323c-.235-12.651-.143-28.719.955-45.845,0,0,2.854-48.3,28.031-45.189C95.955,40.456,90.622,69.822,73.6,99.3c-13.166,22.794-24.148,30.023-24.148,30.023" transform="translate(1 1.003)" fill="#a4ffb1"/>
    <path id="Path_17611" data-name="Path 17611" d="M49.5,135.837c-.412,6.414-.6,21.157,1.384,27.583,1.6,5.188,5.947,7.511,10.357,5.694,9.462-3.9,16.71-22.362,12.689-30.442-7.295-12.385-24.43-2.835-24.43-2.835" transform="translate(1 1.003)" fill="#a4ffb1"/>
    <path id="Path_17612" data-name="Path 17612" d="M98.286,41.539l2.381.117a1.917,1.917,0,0,1,.494,3.719l1.284,2.63-1.32-.063-1.195-2.5-.655-.032-.107,2.435-1.156-.057Zm1.034,2.836,1.1.054a.754.754,0,0,0,.84-.814.744.744,0,0,0-.74-.865l-1.13-.056Z" transform="translate(1 1.003)" fill="#a4ffb1"/>
    <path id="Path_17613" data-name="Path 17613" d="M100.319,51.483c-.1,0-.192,0-.287-.007A5.919,5.919,0,0,1,95.819,49.4a6.573,6.573,0,0,1-1.579-4.608,6.505,6.505,0,0,1,1.977-4.438,5.859,5.859,0,0,1,4.374-1.662,5.918,5.918,0,0,1,4.212,2.081,6.645,6.645,0,0,1-.4,9.046,5.863,5.863,0,0,1-4.086,1.669M100.3,39.518a5.086,5.086,0,0,0-3.55,1.453,5.772,5.772,0,0,0-.345,7.858,5.1,5.1,0,0,0,7.461.363,5.774,5.774,0,0,0,.345-7.858,5.14,5.14,0,0,0-3.659-1.809c-.084-.005-.168-.007-.252-.007" transform="translate(1 1.003)" fill="#a4ffb1"/>
  </g>
</svg>
